<svg width="23" height="23" viewBox="0 0 23 23" fill="none" xmlns="http://www.w3.org/2000/svg">
<path d="M11.3394 0.280006C5.07507 0.280006 0 5.35933 0 11.6194C0 16.6321 3.24873 20.8808 7.75116 22.3797C8.32025 22.4867 8.52578 22.1359 8.52578 21.8326C8.52578 21.5633 8.5194 20.851 8.51515 19.9056C5.35926 20.5888 4.69449 18.3812 4.69449 18.3812C4.17784 17.0743 3.43228 16.7235 3.43228 16.7235C2.40607 16.0226 3.51378 16.0375 3.51378 16.0375C4.65055 16.1147 5.2487 17.2033 5.2487 17.2033C6.26003 18.9382 7.90211 18.4364 8.552 18.1445C8.65122 17.4138 8.94675 16.9113 9.26851 16.6314C6.75117 16.3472 4.10414 15.3727 4.10414 11.0276C4.10414 9.78664 4.54354 8.77602 5.26997 7.98226C5.14452 7.69807 4.7604 6.54287 5.36989 4.98088C5.36989 4.98088 6.31886 4.67826 8.48822 6.14387C9.39607 5.89228 10.3599 5.76684 11.3231 5.76046C12.2869 5.76684 13.25 5.89299 14.1579 6.14387C16.3145 4.67826 17.2628 4.98088 17.2628 4.98088C17.8715 6.54287 17.4874 7.69736 17.3769 7.98226C18.0962 8.77602 18.5356 9.78735 18.5356 11.0276C18.5356 15.3826 15.885 16.3429 13.3648 16.62C13.7589 16.9595 14.1281 17.6576 14.1281 18.7171C14.1281 20.2337 14.114 21.4555 14.114 21.8248C14.114 22.1196 14.3124 22.474 14.8964 22.3599C19.4321 20.8765 22.6773 16.6243 22.6773 11.6187C22.6773 5.35862 17.6022 0.279297 11.3379 0.279297L11.3394 0.280006Z" fill="white"/>
</svg>
