<svg width="317" height="162" viewBox="0 0 317 162" fill="none" xmlns="http://www.w3.org/2000/svg">
<path d="M6.49442 161.618C4.39146 161.618 2.78332 161 1.66999 159.763C0.556664 158.649 0 157.103 0 155.124V151.042C0 148.939 0.556664 147.331 1.66999 146.217C2.90703 145.104 4.51517 144.547 6.49442 144.547H10.02C11.9992 144.547 13.8548 144.114 15.5866 143.248C17.3185 142.506 18.8029 141.145 20.0399 139.166L49.172 92.2208C50.1617 90.4889 50.6565 88.6952 50.6565 86.8397C50.6565 84.7367 50.038 82.8812 48.8009 81.273L22.4521 45.4609C19.8544 42.1209 16.7618 40.451 13.1744 40.451C11.3188 40.451 9.77255 39.9561 8.53552 38.9665C7.29849 37.8532 6.67997 36.4306 6.67997 34.6987V30.0599C6.67997 27.9569 7.23664 26.3488 8.34997 25.2355C9.587 24.1221 11.1951 23.5655 13.1744 23.5655H21.1533C24.9881 23.5655 28.2662 25.421 30.9877 29.1321L58.4498 66.0575C59.4394 67.542 60.6764 68.2842 62.1609 68.2842C63.5216 68.2842 64.7586 67.4183 65.872 65.6864L90.5508 25.7921C92.0352 23.3181 93.0867 21.0296 93.7052 18.9266C94.3237 16.6999 94.633 14.597 94.633 12.6177V6.49441C94.633 4.39146 95.1896 2.78332 96.303 1.66999C97.54 0.556665 99.1481 0 101.127 0H105.21C107.313 0 108.921 0.618516 110.034 1.85555C111.147 2.96888 111.704 4.51516 111.704 6.49441V17.8133C111.704 19.7925 111.457 21.7718 110.962 23.751C110.467 25.6066 109.539 27.5858 108.178 29.6888L76.6341 80.3452C75.6445 82.0771 75.1497 83.8089 75.1497 85.5408C75.1497 87.6437 75.7682 89.4993 77.0053 91.1074L98.5296 120.24C101.127 123.827 104.406 125.621 108.364 125.621H111.704C113.807 125.621 115.415 126.239 116.528 127.476C117.642 128.59 118.198 130.136 118.198 132.115V136.197C118.198 138.3 117.58 139.908 116.343 141.022C115.23 142.135 113.683 142.692 111.704 142.692H99.6429C95.9318 142.692 92.6537 140.836 89.8085 137.125L67.3564 106.88C66.2431 105.271 65.006 104.467 63.6453 104.467C62.1609 104.467 60.9238 105.333 59.9342 107.065L29.5032 156.237C28.2662 158.216 26.7817 159.577 25.0499 160.319C23.3181 161.185 21.4625 161.618 19.4833 161.618H6.49442Z" fill="white"/>
<path d="M151.407 155.132V74.2304C151.407 71.7564 150.417 70.5193 148.438 70.5193C147.448 70.5193 146.52 70.7667 145.654 71.2616L99.0801 97.4248C98.4616 97.7959 97.9049 98.0433 97.4101 98.167C96.9153 98.167 96.4824 98.167 96.1113 98.167C95.369 98.167 94.5031 97.734 93.5135 96.8681C92.6476 95.8785 92.2146 94.4559 92.2146 92.6004V86.1059C92.2146 84.1267 92.7713 82.5185 93.8846 81.2815C95.1216 80.0445 96.7916 78.8074 98.8946 77.5704L184.25 31.1817C186.229 30.0684 187.837 28.8932 189.074 27.6562C190.311 26.4191 190.93 24.811 190.93 22.8317V8.35845C190.93 6.2555 191.486 4.64736 192.6 3.53403C193.837 2.42071 195.445 1.86404 197.424 1.86404H201.321C203.548 1.86404 205.217 2.48256 206.331 3.71959C207.444 4.83292 208.001 6.37921 208.001 8.35845V22.8317C208.001 26.7902 206.887 30.6869 204.661 34.5217C202.434 38.3565 199.465 41.3254 195.754 43.4283L174.601 55.3038C172.498 56.4172 171.014 57.8398 170.148 59.5716C169.282 61.1797 168.849 62.9734 168.849 64.9527V155.132C168.849 157.235 168.23 158.843 166.993 159.957C165.756 161.07 164.148 161.627 162.169 161.627H158.087C155.86 161.627 154.19 161.008 153.077 159.771C151.963 158.658 151.407 157.112 151.407 155.132Z" fill="white"/>
<path d="M310.156 23.9451C306.197 23.9451 304.218 21.904 304.218 17.8218V6.87402C304.218 2.79182 306.197 0.750715 310.156 0.750715C312.012 0.750715 313.496 1.30738 314.609 2.42071C315.723 3.53403 316.279 5.01847 316.279 6.87402V17.8218C316.279 19.6773 315.723 21.1617 314.609 22.2751C313.496 23.3884 312.012 23.9451 310.156 23.9451ZM292.157 23.9451C290.302 23.9451 288.817 23.3884 287.704 22.2751C286.591 21.1617 286.034 19.6773 286.034 17.8218V6.87402C286.034 5.01847 286.591 3.53403 287.704 2.42071C288.817 1.30738 290.302 0.750715 292.157 0.750715C296.116 0.750715 298.095 2.79182 298.095 6.87402V17.8218C298.095 21.904 296.116 23.9451 292.157 23.9451ZM220.533 161.998C218.801 161.998 217.255 161.318 215.894 159.957C214.657 158.72 214.039 157.235 214.039 155.503V6.31735C214.039 4.58551 214.657 3.10107 215.894 1.86404C217.255 0.62701 218.801 0.00849403 220.533 0.00849403H224.615C226.471 0.00849403 228.017 0.62701 229.254 1.86404C230.615 3.10107 231.295 4.58551 231.295 6.31735V155.503C231.295 157.235 230.615 158.72 229.254 159.957C228.017 161.318 226.471 161.998 224.615 161.998H220.533ZM238.346 46.3972C237.728 45.5313 237.418 44.6654 237.418 43.7994C237.418 41.9439 238.656 41.0161 241.13 41.0161H248.552C250.284 41.0161 252.139 41.5728 254.118 42.6861C256.221 43.6757 257.768 44.9128 258.757 46.3972L295.312 103.548C296.549 105.527 297.909 107.135 299.394 108.373C301.002 109.61 302.796 110.228 304.775 110.228C306.507 110.228 307.806 110.908 308.672 112.269C309.661 113.63 310.156 115.362 310.156 117.465V122.846C310.156 124.701 309.537 126.309 308.3 127.67C307.063 128.907 305.579 129.526 303.847 129.526H297.909C296.178 129.526 294.322 128.969 292.343 127.856C290.487 126.742 289.065 125.444 288.075 123.959L238.346 46.3972Z" fill="white"/>
</svg>
